<mxfile host="Electron" agent="Mozilla/5.0 (Windows NT 10.0; Win64; x64) AppleWebKit/537.36 (KHTML, like Gecko) draw.io/28.0.6 Chrome/138.0.7204.100 Electron/37.2.3 Safari/537.36" version="28.0.6">
  <diagram name="Trang-1" id="aTbUcq-hWY_gAvovgtCL">
    <mxGraphModel dx="1042" dy="626" grid="1" gridSize="10" guides="1" tooltips="1" connect="1" arrows="1" fold="1" page="1" pageScale="1" pageWidth="827" pageHeight="1169" math="0" shadow="0">
      <root>
        <mxCell id="0" />
        <mxCell id="1" parent="0" />
        <mxCell id="iB3RQrfQWrZVPO8HXQLA-55" style="edgeStyle=orthogonalEdgeStyle;rounded=0;orthogonalLoop=1;jettySize=auto;html=1;entryX=0.5;entryY=0;entryDx=0;entryDy=0;" edge="1" parent="1" source="iB3RQrfQWrZVPO8HXQLA-56" target="iB3RQrfQWrZVPO8HXQLA-58">
          <mxGeometry relative="1" as="geometry">
            <mxPoint x="420" y="200" as="targetPoint" />
          </mxGeometry>
        </mxCell>
        <mxCell id="iB3RQrfQWrZVPO8HXQLA-56" value="Start" style="ellipse;html=1;fillColor=#60a917;fontColor=default;strokeColor=#2D7600;fontSize=23;convertToSvg=0;" vertex="1" parent="1">
          <mxGeometry x="360" y="80" width="120" height="80" as="geometry" />
        </mxCell>
        <mxCell id="iB3RQrfQWrZVPO8HXQLA-57" style="edgeStyle=orthogonalEdgeStyle;rounded=0;orthogonalLoop=1;jettySize=auto;html=1;entryX=0.5;entryY=0;entryDx=0;entryDy=0;" edge="1" parent="1" source="iB3RQrfQWrZVPO8HXQLA-58" target="iB3RQrfQWrZVPO8HXQLA-60">
          <mxGeometry relative="1" as="geometry" />
        </mxCell>
        <mxCell id="iB3RQrfQWrZVPO8HXQLA-58" value="Nhập vào 1 dãy số nguyên N" style="shape=parallelogram;perimeter=parallelogramPerimeter;whiteSpace=wrap;html=1;fixedSize=1;" vertex="1" parent="1">
          <mxGeometry x="340" y="200" width="160" height="80" as="geometry" />
        </mxCell>
        <mxCell id="iB3RQrfQWrZVPO8HXQLA-59" style="edgeStyle=orthogonalEdgeStyle;rounded=0;orthogonalLoop=1;jettySize=auto;html=1;entryX=0.5;entryY=0;entryDx=0;entryDy=0;" edge="1" parent="1" source="iB3RQrfQWrZVPO8HXQLA-60" target="iB3RQrfQWrZVPO8HXQLA-63">
          <mxGeometry relative="1" as="geometry">
            <mxPoint x="420" y="450" as="targetPoint" />
          </mxGeometry>
        </mxCell>
        <mxCell id="iB3RQrfQWrZVPO8HXQLA-60" value="Tính tông dậy số 1....N" style="rounded=0;whiteSpace=wrap;html=1;" vertex="1" parent="1">
          <mxGeometry x="355" y="330" width="130" height="70" as="geometry" />
        </mxCell>
        <mxCell id="iB3RQrfQWrZVPO8HXQLA-61" style="edgeStyle=orthogonalEdgeStyle;rounded=0;orthogonalLoop=1;jettySize=auto;html=1;entryX=0.5;entryY=0;entryDx=0;entryDy=0;exitX=0.5;exitY=1;exitDx=0;exitDy=0;" edge="1" parent="1" source="iB3RQrfQWrZVPO8HXQLA-63" target="iB3RQrfQWrZVPO8HXQLA-62">
          <mxGeometry relative="1" as="geometry">
            <mxPoint x="420" y="510" as="sourcePoint" />
          </mxGeometry>
        </mxCell>
        <mxCell id="iB3RQrfQWrZVPO8HXQLA-62" value="&lt;font style=&quot;font-size: 19px;&quot;&gt;End&lt;/font&gt;" style="ellipse;whiteSpace=wrap;html=1;fillColor=#a20025;fontColor=#ffffff;strokeColor=#6F0000;" vertex="1" parent="1">
          <mxGeometry x="360" y="560" width="120" height="80" as="geometry" />
        </mxCell>
        <mxCell id="iB3RQrfQWrZVPO8HXQLA-63" value="In tổng" style="shape=parallelogram;perimeter=parallelogramPerimeter;whiteSpace=wrap;html=1;fixedSize=1;" vertex="1" parent="1">
          <mxGeometry x="362.5" y="460" width="115" height="50" as="geometry" />
        </mxCell>
      </root>
    </mxGraphModel>
  </diagram>
</mxfile>
